<?xml version="1.0" encoding="utf-8" ?>
<svg class="icon icon--email" id="email-icon" version="1.1" xmlns="http://www.w3.org/2000/svg" viewBox="0 0 40 32">
	<path d="M36.2,9.9c-3.5,2.5-7,4.9-10.4,7.4c-1.5,1-3.9,3.1-5.7,3.1h0h0c-1.8,0-4.3-2.1-5.7-3.1c-3.5-2.5-7-4.9-10.4-7.4
		C2.3,8.8,0,6.2,0,4.1C0,1.9,1.2,0,3.6,0h32.9C38.4,0,40,1.6,40,3.6C40,6.2,38.1,8.5,36.2,9.9z M40,28.4c0,2-1.6,3.6-3.6,3.6H3.6
		c-2,0-3.6-1.6-3.6-3.6v-18c0.7,0.8,1.4,1.4,2.3,2c3.7,2.6,7.5,5.1,11.1,7.8c1.9,1.4,4.2,3.1,6.6,3.1h0h0c2.4,0,4.8-1.7,6.6-3.1
		c3.6-2.7,7.4-5.3,11.1-7.8c0.8-0.6,1.6-1.2,2.2-2V28.4z" />
</svg>