<?xml version="1.0" encoding="utf-8" ?>
<svg class="icon icon--instagram" id="instagram-icon" version="1.1" xmlns="http://www.w3.org/2000/svg" viewBox="0 0 32 32">
	<path d="M32,27.9c0,2.3-1.9,4.1-4.1,4.1H4.1C1.9,32,0,30.1,0,27.9V4.1C0,1.9,1.9,0,4.1,0h23.8C30.1,0,32,1.9,32,4.1
		V27.9z M28.4,13.5h-2.8c0.3,0.9,0.4,1.8,0.4,2.7c0,5.3-4.5,9.6-10,9.6c-5.5,0-9.9-4.3-9.9-9.6c0-0.9,0.1-1.9,0.4-2.7H3.6V27
		c0,0.7,0.6,1.3,1.3,1.3h22.3c0.7,0,1.3-0.6,1.3-1.3V13.5z M16,9.7c-3.5,0-6.4,2.8-6.4,6.2c0,3.4,2.9,6.2,6.4,6.2
		c3.6,0,6.4-2.8,6.4-6.2C22.5,12.5,19.6,9.7,16,9.7z M28.4,5c0-0.8-0.6-1.4-1.4-1.4h-3.6c-0.8,0-1.4,0.6-1.4,1.4v3.4
		c0,0.8,0.6,1.4,1.4,1.4h3.6c0.8,0,1.4-0.6,1.4-1.4V5z" />
</svg>