<?xml version="1.0" encoding="utf-8" ?>
<svg id="phone-icon" version="1.1" xmlns="http://www.w3.org/2000/svg" viewBox="0 0 32 32">
	<path d="M32,26c0,3.3-2.7,6-6,6H6c-3.3,0-6-2.7-6-6V6c0-3.3,2.7-6,6-6h20c3.3,0,6,2.7,6,6V26z M26.6,21.9
		c-0.1-0.4-3.2-1.9-3.8-2.3c-0.4-0.2-0.9-0.7-1.4-0.7c-0.9,0-2.3,2.7-3.1,2.7c-0.4,0-0.9-0.4-1.3-0.6c-2.8-1.5-4.6-3.4-6.2-6.2
		c-0.2-0.4-0.6-0.9-0.6-1.3c0-0.8,2.7-2.2,2.7-3.1c0-0.5-0.5-1-0.7-1.4c-0.3-0.6-1.9-3.6-2.3-3.8c-0.1,0-0.2,0-0.3,0
		c-0.5,0-1.6,0.3-2.1,0.5C6.3,6.4,5.3,9,5.3,10.5c0,1.4,0.6,2.7,1,4C8,19,13,24,17.6,25.6c1.3,0.5,2.6,1,4,1c1.4,0,4.1-1,4.7-2.4
		c0.2-0.5,0.5-1.6,0.5-2.1C26.7,22.1,26.7,22,26.6,21.9z" />
</svg>