<?xml version="1.0" encoding="utf-8" ?>
<svg class="icon icon--twitter" id="twitter-icon" version="1.1" xmlns="http://www.w3.org/2000/svg" viewBox="0 0 32 32">
<path d="M32,26c0,3.3-2.7,6-6,6H6c-3.3,0-6-2.7-6-6V6c0-3.3,2.7-6,6-6h20c3.3,0,6,2.7,6,6V26z M24.1,10.8
	c0.9-0.5,1.6-1.4,1.9-2.4c-0.9,0.5-1.8,0.9-2.8,1.1C22.5,8.5,21.4,8,20.1,8c-2.4,0-4.4,2-4.4,4.4c0,0.3,0,0.7,0.1,1
	c-3.6-0.2-6.9-1.9-9-4.6C6.4,9.4,6.2,10.2,6.2,11c0,1.5,0.7,2.9,1.9,3.6c-0.7,0-1.4-0.2-2.1-0.5c0,0,0,0,0,0c0,2.1,1.6,3.9,3.6,4.3
	c-0.4,0.1-0.7,0.2-1.1,0.2c-0.3,0-0.5,0-0.8-0.1c0.6,1.7,2.2,3,4.1,3c-1.5,1.2-3.4,1.9-5.4,1.9c-0.4,0-0.7,0-1-0.1
	c1.9,1.2,4.2,2,6.7,2c8,0,12.5-6.7,12.5-12.5c0-0.2,0-0.4,0-0.6c0.9-0.6,1.6-1.4,2.2-2.3C25.9,10.4,25,10.6,24.1,10.8z" />
</svg>