<?xml version="1.0" encoding="utf-8" ?>
<svg id="youtube-icon" version="1.1" xmlns="http://www.w3.org/2000/svg" viewBox="0 0 32 32">
	<path d="M32,26c0,3.3-2.7,6-6,6H6c-3.3,0-6-2.7-6-6V6c0-3.3,2.7-6,6-6h20c3.3,0,6,2.7,6,6V26z M27.1,16.3
		c-0.3-1.2-1.3-2.1-2.5-2.3c-2.8-0.3-5.7-0.3-8.6-0.3c-2.9,0-5.7,0-8.6,0.3c-1.2,0.1-2.2,1-2.5,2.3c-0.4,1.7-0.4,3.6-0.4,5.4
		c0,1.8,0,3.7,0.4,5.4c0.3,1.2,1.3,2.1,2.5,2.3c2.9,0.3,5.7,0.3,8.6,0.3s5.7,0,8.6-0.3c1.2-0.1,2.2-1,2.5-2.3
		c0.4-1.8,0.4-3.6,0.4-5.4C27.5,19.9,27.5,18,27.1,16.3z M11.1,17.9H9.4v8.8H7.9v-8.8H6.3v-1.5h4.8V17.9z M13.6,2H12L11,6L9.9,2H8.2
		c0.3,1,0.7,1.9,1,2.9c0.5,1.5,0.8,2.5,1,3.3v4.2h1.5V8.1L13.6,2z M15.3,26.7h-1.4v-0.8c-0.5,0.6-1.1,0.9-1.6,0.9
		c-0.4,0-0.8-0.2-0.9-0.6c-0.1-0.2-0.1-0.6-0.1-1.1v-6h1.4v5.6c0,0.3,0,0.5,0,0.5c0,0.2,0.1,0.3,0.3,0.3c0.3,0,0.6-0.2,0.9-0.6V19
		h1.4V26.7z M17.7,7.1c0-0.8-0.1-1.4-0.4-1.8c-0.4-0.5-0.9-0.8-1.6-0.8c-0.7,0-1.2,0.3-1.6,0.8c-0.3,0.4-0.4,1-0.4,1.8v2.7
		c0,0.8,0.1,1.4,0.4,1.8c0.4,0.5,0.9,0.8,1.6,0.8c0.7,0,1.2-0.3,1.6-0.8c0.3-0.4,0.4-1,0.4-1.8V7.1z M16.4,10.1
		c0,0.7-0.2,1.1-0.7,1.1c-0.5,0-0.7-0.4-0.7-1.1V6.9c0-0.7,0.2-1.1,0.7-1.1c0.4,0,0.7,0.4,0.7,1.1V10.1z M20.5,24.4
		c0,0.7,0,1.2-0.1,1.5c-0.2,0.6-0.5,0.9-1.1,0.9c-0.5,0-1-0.3-1.4-0.9v0.8h-1.4V16.4h1.4v3.4c0.4-0.5,0.9-0.8,1.4-0.8
		c0.6,0,0.9,0.3,1.1,0.9c0.1,0.3,0.1,0.8,0.1,1.5V24.4z M19.1,21.2c0-0.7-0.2-1-0.6-1c-0.2,0-0.5,0.1-0.7,0.3v4.7
		c0.2,0.2,0.5,0.3,0.7,0.3c0.4,0,0.6-0.3,0.6-1V21.2z M22.9,12.3V4.6h-1.4v5.9c-0.3,0.4-0.6,0.6-0.9,0.6c-0.2,0-0.3-0.1-0.3-0.3
		c0,0,0-0.2,0-0.5V4.6h-1.4v6.1c0,0.5,0,0.9,0.1,1.1c0.1,0.4,0.5,0.6,0.9,0.6c0.5,0,1-0.3,1.6-0.9v0.8H22.9z M25.7,24.2
		c0,0.5,0,0.8,0,0.9c0,0.3-0.1,0.6-0.3,0.8c-0.4,0.6-1,0.8-1.7,0.8c-0.7,0-1.3-0.3-1.7-0.8c-0.3-0.4-0.4-1-0.4-1.8v-2.7
		c0-0.8,0.1-1.4,0.4-1.8c0.4-0.5,1-0.8,1.7-0.8c0.7,0,1.3,0.3,1.6,0.8c0.3,0.4,0.4,1,0.4,1.8v1.6H23v1.4c0,0.7,0.2,1.1,0.7,1.1
		c0.3,0,0.5-0.2,0.6-0.5c0-0.1,0-0.4,0-0.9h1.4V24.2z M24.4,21.9v-0.7c0-0.7-0.2-1.1-0.7-1.1S23,20.5,23,21.2v0.7H24.4z" />
</svg>